<?xml version="1.0" encoding="iso-8859-1"?>
<!-- Generator: Adobe Illustrator 19.0.0, SVG Export Plug-In . SVG Version: 6.00 Build 0)  -->
<svg version="1.1" id="Capa_1" xmlns="http://www.w3.org/2000/svg" xmlns:xlink="http://www.w3.org/1999/xlink" x="0px" y="0px"
	 viewBox="0 0 511.997 511.997" style="enable-background:new 0 0 511.997 511.997;" xml:space="preserve">
<g>
	<g>
		<path d="M39.604,411.691h-0.08c-4.142,0-7.46,3.358-7.46,7.5c0,4.142,3.398,7.5,7.54,7.5s7.5-3.358,7.5-7.5
			C47.104,415.049,43.747,411.691,39.604,411.691z"/>
	</g>
</g>
<g>
	<g>
		<path d="M296.161,411.691h-0.08c-4.142,0-7.46,3.358-7.46,7.5c0,4.142,3.398,7.5,7.54,7.5c4.142,0,7.5-3.358,7.5-7.5
			C303.661,415.049,300.303,411.691,296.161,411.691z"/>
	</g>
</g>
<g>
	<g>
		<path d="M231.951,411.691H103.693c-4.142,0-7.5,3.358-7.5,7.5c0,4.142,3.358,7.5,7.5,7.5h128.258c4.142,0,7.5-3.358,7.5-7.5
			C239.451,415.049,236.093,411.691,231.951,411.691z"/>
	</g>
</g>
<g>
	<g>
		<path d="M119.726,291.449H71.629c-4.142,0-7.5,3.358-7.5,7.5c0,4.142,3.358,7.5,7.5,7.5h48.097c4.142,0,7.5-3.358,7.5-7.5
			C127.226,294.807,123.868,291.449,119.726,291.449z"/>
	</g>
</g>
<g>
	<g>
		<path d="M499.207,336.271L425.779,64.702c-1.109-4.104-3.895-7.612-7.641-9.622c-3.746-2.01-8.209-2.393-12.244-1.049
			l-10.96,3.654c-5.916,1.971-10.062,7.262-10.561,13.478l-2.07,25.759l-137.672,55.676c-7.606,3.125-13.321,9.394-15.68,17.2
			l-15.002,49.642c-7.627,0.973-13.547,7.49-13.547,15.377v24.569H55.597c-12.976,0-23.532,10.557-23.532,23.532v56.113
			c0,12.976,10.557,23.532,23.532,23.532h24.564v17.064H39.564C17.749,379.626,0,397.375,0,419.191s17.749,39.565,39.564,39.565
			H296.08c0.005,0,0.009-0.001,0.013-0.001c0.009,0,0.018,0.001,0.027,0.001c21.816,0,39.564-17.749,39.564-39.565
			c0-21.816-17.749-39.564-39.564-39.564c-0.009,0-0.018,0.001-0.027,0.001c-0.005,0-0.009-0.001-0.013-0.001h-40.597v-17.064
			h24.564c8.556,0,15.516-6.96,15.516-15.516v-36.551c0-3.072-0.448-6.121-1.331-9.064l-21.391-71.308l7.646-31.669l74.423-36.148
			c3.726-1.81,5.279-6.297,3.469-10.023c-1.809-3.725-6.295-5.279-10.023-3.469l-77.598,37.69c-2.01,0.976-3.481,2.799-4.01,4.97
			l-6.781,27.828H229.66l13.649-45.165c1.048-3.467,3.607-6.26,6.983-7.647l146.465-59.231c2.012-0.814,4.221-0.796,6.219,0.052
			c1.998,0.847,3.547,2.422,4.361,4.435c1.592,3.938-0.164,8.49-3.983,10.356l-26.763,12.999c-3.726,1.81-5.279,6.297-3.469,10.023
			s6.298,5.28,10.023,3.469l4.765-2.314l60.39,177.241c-3.193,0.036-6.019,2.086-7.031,5.122l-22.339,67.021h-11.038
			c-4.142,0-7.5,3.358-7.5,7.5c0,4.142,3.358,7.5,7.5,7.5h60.53c24.027,0,43.575-19.547,43.575-43.575
			C512,355.062,507.106,344.163,499.207,336.271z M39.564,443.756C26.02,443.756,15,432.736,15,419.191
			c0-13.545,11.02-24.564,24.564-24.564c13.544,0,24.564,11.02,24.564,24.564S53.109,443.756,39.564,443.756z M296.121,394.626
			c13.545,0,24.564,11.02,24.564,24.564s-11.02,24.565-24.564,24.565s-24.564-11.02-24.564-24.565
			C271.557,405.645,282.576,394.626,296.121,394.626z M265.14,394.626c-5.366,6.754-8.584,15.288-8.584,24.564
			c0,9.277,3.218,17.811,8.584,24.565H70.545c5.366-6.754,8.584-15.288,8.584-24.565c0-9.276-3.218-17.811-8.584-24.564H265.14z
			 M280.566,347.046h-0.002c0,0.285-0.231,0.516-0.516,0.516h-144.29c-4.142,0-7.5,3.358-7.5,7.5c0,4.142,3.358,7.5,7.5,7.5h104.726
			v17.064H95.161v-17.064h8.532c4.142,0,7.5-3.358,7.5-7.5c0-4.142-3.358-7.5-7.5-7.5H55.597c-4.705,0-8.532-3.828-8.532-8.532
			v-56.113c0-4.705,3.828-8.532,8.532-8.532h144.807v17.924c0,6.286,2.448,12.195,6.893,16.64l14.657,14.657
			c4.445,4.445,10.354,6.893,16.64,6.893h41.972V347.046z M258.052,234.3c0.226,0,0.43,0.151,0.495,0.368l21.32,71.072
			c0.463,1.544,0.698,3.144,0.698,4.755v5.003h-41.972c-2.279,0-4.421-0.888-6.033-2.499l-14.657-14.657
			c-1.611-1.612-2.499-3.754-2.499-6.033v-57.493c0-0.285,0.231-0.516,0.516-0.516H258.052z M401.509,139.671l8.417-4.088
			c10.88-5.316,15.852-18.259,11.319-29.464c-2.316-5.727-6.723-10.209-12.41-12.621c-3.549-1.505-7.332-2.091-11.066-1.756
			l1.557-19.38c0.017-0.207,0.154-0.382,0.351-0.448l10.96-3.654c0.053-0.018,0.211-0.071,0.408,0.035
			c0.196,0.105,0.238,0.261,0.254,0.32l69.397,256.664c-3.895-1.146-8.01-1.771-12.271-1.771h-4.278L401.509,139.671z
			 M468.425,395.658h-33.681l19.049-57.149h14.632c15.756,0,28.575,12.818,28.575,28.575
			C497,382.84,484.182,395.658,468.425,395.658z"/>
	</g>
</g>
<g>
</g>
<g>
</g>
<g>
</g>
<g>
</g>
<g>
</g>
<g>
</g>
<g>
</g>
<g>
</g>
<g>
</g>
<g>
</g>
<g>
</g>
<g>
</g>
<g>
</g>
<g>
</g>
<g>
</g>
</svg>
